<mxfile host="app.diagrams.net" agent="Mozilla/5.0 (X11; Ubuntu; Linux x86_64; rv:135.0) Gecko/20100101 Firefox/135.0" version="26.0.16">
  <diagram name="Page-1" id="Juiqj6YkxCS37qnOwY-p">
    <mxGraphModel dx="1687" dy="901" grid="1" gridSize="5" guides="1" tooltips="1" connect="1" arrows="1" fold="1" page="1" pageScale="1" pageWidth="850" pageHeight="1100" math="0" shadow="0">
      <root>
        <mxCell id="0" />
        <mxCell id="1" parent="0" />
        <mxCell id="6dm7ZZ2Ce49l9A71G7zG-26" value="rsta" style="text;html=1;align=left;verticalAlign=middle;resizable=0;points=[];autosize=1;strokeColor=none;fillColor=none;spacing=0;fontFamily=NewsGotT;spacingLeft=3;spacingRight=-10;spacingBottom=-2;spacingTop=-2;" parent="1" vertex="1">
          <mxGeometry x="360" y="128" width="25" height="20" as="geometry" />
        </mxCell>
        <mxCell id="6dm7ZZ2Ce49l9A71G7zG-27" value="" style="triangle;whiteSpace=wrap;html=1;fontFamily=NewsGotT;movable=1;resizable=1;rotatable=1;deletable=1;editable=1;locked=0;connectable=1;container=0;points=[];" parent="1" vertex="1">
          <mxGeometry x="360" y="115" width="7.5" height="10" as="geometry" />
        </mxCell>
        <mxCell id="6dm7ZZ2Ce49l9A71G7zG-28" value="ena" style="text;html=1;align=left;verticalAlign=middle;resizable=0;points=[];autosize=1;strokeColor=none;fillColor=none;spacing=0;fontFamily=NewsGotT;spacingLeft=3;spacingRight=-10;spacingBottom=-2;spacingTop=-2;" parent="1" vertex="1">
          <mxGeometry x="360" y="152" width="20" height="20" as="geometry" />
        </mxCell>
        <mxCell id="6dm7ZZ2Ce49l9A71G7zG-29" value="wea" style="text;html=1;align=left;verticalAlign=middle;resizable=0;points=[];autosize=1;strokeColor=none;fillColor=none;spacing=0;fontFamily=NewsGotT;spacingLeft=3;spacingRight=-10;spacingBottom=-2;spacingTop=-2;" parent="1" vertex="1">
          <mxGeometry x="360" y="177" width="25" height="20" as="geometry" />
        </mxCell>
        <mxCell id="6dm7ZZ2Ce49l9A71G7zG-30" value="addra" style="text;html=1;align=left;verticalAlign=middle;resizable=0;points=[];autosize=1;strokeColor=none;fillColor=none;fontFamily=NewsGotT;fontSize=12;fontColor=default;spacing=0;spacingLeft=3;spacingRight=-10;spacingBottom=-2;spacingTop=-2;" parent="1" vertex="1">
          <mxGeometry x="360" y="201" width="30" height="20" as="geometry" />
        </mxCell>
        <mxCell id="6dm7ZZ2Ce49l9A71G7zG-31" value="dina" style="text;html=1;align=left;verticalAlign=middle;resizable=0;points=[];autosize=1;strokeColor=none;fillColor=none;fontFamily=NewsGotT;fontSize=12;fontColor=default;spacing=0;spacingLeft=3;spacingRight=-10;spacingBottom=-2;spacingTop=-2;" parent="1" vertex="1">
          <mxGeometry x="360" y="225" width="25" height="20" as="geometry" />
        </mxCell>
        <mxCell id="6dm7ZZ2Ce49l9A71G7zG-32" value="" style="triangle;whiteSpace=wrap;html=1;fontFamily=NewsGotT;movable=1;resizable=1;rotatable=1;deletable=1;editable=1;locked=0;connectable=1;container=0;points=[[0,0.5,0,0,0]];" parent="1" vertex="1">
          <mxGeometry x="360" y="115" width="7.5" height="10" as="geometry" />
        </mxCell>
        <mxCell id="6dm7ZZ2Ce49l9A71G7zG-34" value="rstb" style="text;html=1;align=left;verticalAlign=middle;resizable=0;points=[];autosize=1;strokeColor=none;fillColor=none;spacing=0;fontFamily=NewsGotT;spacingLeft=3;spacingRight=-10;spacingBottom=-2;spacingTop=-2;" parent="1" vertex="1">
          <mxGeometry x="360" y="264" width="25" height="20" as="geometry" />
        </mxCell>
        <mxCell id="6dm7ZZ2Ce49l9A71G7zG-35" value="enb" style="text;html=1;align=left;verticalAlign=middle;resizable=0;points=[];autosize=1;strokeColor=none;fillColor=none;spacing=0;fontFamily=NewsGotT;spacingLeft=3;spacingRight=-10;spacingBottom=-2;spacingTop=-2;" parent="1" vertex="1">
          <mxGeometry x="360" y="288" width="20" height="20" as="geometry" />
        </mxCell>
        <mxCell id="6dm7ZZ2Ce49l9A71G7zG-36" value="web" style="text;html=1;align=left;verticalAlign=middle;resizable=0;points=[];autosize=1;strokeColor=none;fillColor=none;spacing=0;fontFamily=NewsGotT;spacingLeft=3;spacingRight=-10;spacingBottom=-2;spacingTop=-2;" parent="1" vertex="1">
          <mxGeometry x="360" y="313" width="25" height="20" as="geometry" />
        </mxCell>
        <mxCell id="6dm7ZZ2Ce49l9A71G7zG-37" value="addrb" style="text;html=1;align=left;verticalAlign=middle;resizable=0;points=[];autosize=1;strokeColor=none;fillColor=none;fontFamily=NewsGotT;fontSize=12;fontColor=default;spacing=0;spacingLeft=3;spacingRight=-10;spacingBottom=-2;spacingTop=-2;" parent="1" vertex="1">
          <mxGeometry x="360" y="337" width="30" height="20" as="geometry" />
        </mxCell>
        <mxCell id="6dm7ZZ2Ce49l9A71G7zG-38" value="dinb" style="text;html=1;align=left;verticalAlign=middle;resizable=0;points=[];autosize=1;strokeColor=none;fillColor=none;fontFamily=NewsGotT;fontSize=12;fontColor=default;spacing=0;spacingLeft=3;spacingRight=-10;spacingBottom=-2;spacingTop=-2;" parent="1" vertex="1">
          <mxGeometry x="360" y="361" width="25" height="20" as="geometry" />
        </mxCell>
        <mxCell id="6dm7ZZ2Ce49l9A71G7zG-39" value="" style="triangle;whiteSpace=wrap;html=1;fontFamily=NewsGotT;movable=1;resizable=1;rotatable=1;deletable=1;editable=1;locked=0;connectable=1;container=0;points=[[0,0.5,0,0,0]];" parent="1" vertex="1">
          <mxGeometry x="360" y="251" width="7.5" height="10" as="geometry" />
        </mxCell>
        <mxCell id="6dm7ZZ2Ce49l9A71G7zG-46" value="x_re_i[31:0]" style="edgeStyle=orthogonalEdgeStyle;rounded=0;orthogonalLoop=1;jettySize=auto;html=1;entryX=0;entryY=0.21;entryDx=0;entryDy=3;entryPerimeter=0;endArrow=none;endFill=0;align=right;fontSize=12;fontFamily=NewsGotT;" parent="1" target="6dm7ZZ2Ce49l9A71G7zG-1" edge="1">
          <mxGeometry x="-1" y="5" relative="1" as="geometry">
            <mxPoint x="90" y="209" as="sourcePoint" />
            <Array as="points">
              <mxPoint x="128" y="209" />
            </Array>
            <mxPoint x="-5" y="5" as="offset" />
          </mxGeometry>
        </mxCell>
        <mxCell id="6dm7ZZ2Ce49l9A71G7zG-155" value="src_sel_i" style="edgeStyle=orthogonalEdgeStyle;rounded=0;orthogonalLoop=1;jettySize=auto;html=1;exitX=0.3333333333333333;exitY=1;exitDx=10;exitDy=0;exitPerimeter=0;entryX=0.3333333333333333;entryY=1;entryDx=10;entryDy=0;entryPerimeter=0;endArrow=none;endFill=0;align=right;fontFamily=NewsGotT;fontSize=12;" parent="1" target="6dm7ZZ2Ce49l9A71G7zG-1" edge="1">
          <mxGeometry x="-1" y="-5" relative="1" as="geometry">
            <mxPoint x="90" y="300" as="sourcePoint" />
            <Array as="points">
              <mxPoint x="195" y="300" />
            </Array>
            <mxPoint x="-5" y="-5" as="offset" />
          </mxGeometry>
        </mxCell>
        <mxCell id="6dm7ZZ2Ce49l9A71G7zG-1" value="" style="shadow=0;dashed=0;align=center;html=1;strokeWidth=1;shape=mxgraph.electrical.abstract.mux2;whiteSpace=wrap;fontFamily=NewsGotT;fontSize=14;" parent="1" vertex="1">
          <mxGeometry x="165" y="185" width="60" height="100" as="geometry" />
        </mxCell>
        <mxCell id="6dm7ZZ2Ce49l9A71G7zG-2" value="&lt;b&gt;N-point&lt;br&gt;BRAM&lt;/b&gt;" style="rounded=0;whiteSpace=wrap;html=1;fontFamily=NewsGotT;verticalAlign=middle;" parent="1" vertex="1">
          <mxGeometry x="355" y="90" width="110" height="300" as="geometry" />
        </mxCell>
        <mxCell id="6dm7ZZ2Ce49l9A71G7zG-3" value="rsta" style="text;html=1;align=left;verticalAlign=middle;resizable=0;points=[];autosize=1;strokeColor=none;fillColor=none;spacing=0;fontFamily=NewsGotT;spacingLeft=3;spacingRight=-10;spacingBottom=-2;spacingTop=-2;" parent="1" vertex="1">
          <mxGeometry x="355" y="123" width="25" height="20" as="geometry" />
        </mxCell>
        <mxCell id="6dm7ZZ2Ce49l9A71G7zG-4" value="" style="triangle;whiteSpace=wrap;html=1;fontFamily=NewsGotT;movable=1;resizable=1;rotatable=1;deletable=1;editable=1;locked=0;connectable=1;container=0;points=[];" parent="1" vertex="1">
          <mxGeometry x="355" y="110" width="7.5" height="10" as="geometry" />
        </mxCell>
        <mxCell id="6dm7ZZ2Ce49l9A71G7zG-5" value="ena" style="text;html=1;align=left;verticalAlign=middle;resizable=0;points=[];autosize=1;strokeColor=none;fillColor=none;spacing=0;fontFamily=NewsGotT;spacingLeft=3;spacingRight=-10;spacingBottom=-2;spacingTop=-2;" parent="1" vertex="1">
          <mxGeometry x="355" y="147" width="20" height="20" as="geometry" />
        </mxCell>
        <mxCell id="6dm7ZZ2Ce49l9A71G7zG-6" value="wea" style="text;html=1;align=left;verticalAlign=middle;resizable=0;points=[];autosize=1;strokeColor=none;fillColor=none;spacing=0;fontFamily=NewsGotT;spacingLeft=3;spacingRight=-10;spacingBottom=-2;spacingTop=-2;" parent="1" vertex="1">
          <mxGeometry x="355" y="172" width="25" height="20" as="geometry" />
        </mxCell>
        <mxCell id="6dm7ZZ2Ce49l9A71G7zG-7" value="addra" style="text;html=1;align=left;verticalAlign=middle;resizable=0;points=[];autosize=1;strokeColor=none;fillColor=none;fontFamily=NewsGotT;fontSize=12;fontColor=default;spacing=0;spacingLeft=3;spacingRight=-10;spacingBottom=-2;spacingTop=-2;" parent="1" vertex="1">
          <mxGeometry x="355" y="196" width="30" height="20" as="geometry" />
        </mxCell>
        <mxCell id="6dm7ZZ2Ce49l9A71G7zG-8" value="dina" style="text;html=1;align=left;verticalAlign=middle;resizable=0;points=[];autosize=1;strokeColor=none;fillColor=none;fontFamily=NewsGotT;fontSize=12;fontColor=default;spacing=0;spacingLeft=3;spacingRight=-10;spacingBottom=-2;spacingTop=-2;" parent="1" vertex="1">
          <mxGeometry x="355" y="220" width="25" height="20" as="geometry" />
        </mxCell>
        <mxCell id="6dm7ZZ2Ce49l9A71G7zG-9" value="" style="triangle;whiteSpace=wrap;html=1;fontFamily=NewsGotT;movable=1;resizable=1;rotatable=1;deletable=1;editable=1;locked=0;connectable=1;container=0;points=[[0,0.5,0,0,0]];" parent="1" vertex="1">
          <mxGeometry x="355" y="110" width="7.5" height="10" as="geometry" />
        </mxCell>
        <mxCell id="6dm7ZZ2Ce49l9A71G7zG-11" value="douta" style="text;html=1;align=right;verticalAlign=middle;resizable=0;points=[];autosize=1;strokeColor=none;fillColor=none;fontFamily=NewsGotT;fontSize=12;fontColor=default;spacing=0;spacingRight=3;spacingLeft=-9;spacingBottom=-2;spacingTop=-2;" parent="1" vertex="1">
          <mxGeometry x="435" y="165" width="30" height="20" as="geometry" />
        </mxCell>
        <mxCell id="6dm7ZZ2Ce49l9A71G7zG-12" value="rstb" style="text;html=1;align=left;verticalAlign=middle;resizable=0;points=[];autosize=1;strokeColor=none;fillColor=none;spacing=0;fontFamily=NewsGotT;spacingLeft=3;spacingRight=-10;spacingBottom=-2;spacingTop=-2;" parent="1" vertex="1">
          <mxGeometry x="355" y="259" width="25" height="20" as="geometry" />
        </mxCell>
        <mxCell id="6dm7ZZ2Ce49l9A71G7zG-13" value="enb" style="text;html=1;align=left;verticalAlign=middle;resizable=0;points=[];autosize=1;strokeColor=none;fillColor=none;spacing=0;fontFamily=NewsGotT;spacingLeft=3;spacingRight=-10;spacingBottom=-2;spacingTop=-2;" parent="1" vertex="1">
          <mxGeometry x="355" y="283" width="20" height="20" as="geometry" />
        </mxCell>
        <mxCell id="6dm7ZZ2Ce49l9A71G7zG-14" value="web" style="text;html=1;align=left;verticalAlign=middle;resizable=0;points=[];autosize=1;strokeColor=none;fillColor=none;spacing=0;fontFamily=NewsGotT;spacingLeft=3;spacingRight=-10;spacingBottom=-2;spacingTop=-2;" parent="1" vertex="1">
          <mxGeometry x="355" y="308" width="25" height="20" as="geometry" />
        </mxCell>
        <mxCell id="6dm7ZZ2Ce49l9A71G7zG-15" value="addrb" style="text;html=1;align=left;verticalAlign=middle;resizable=0;points=[];autosize=1;strokeColor=none;fillColor=none;fontFamily=NewsGotT;fontSize=12;fontColor=default;spacing=0;spacingLeft=3;spacingRight=-10;spacingBottom=-2;spacingTop=-2;" parent="1" vertex="1">
          <mxGeometry x="355" y="332" width="30" height="20" as="geometry" />
        </mxCell>
        <mxCell id="6dm7ZZ2Ce49l9A71G7zG-16" value="dinb" style="text;html=1;align=left;verticalAlign=middle;resizable=0;points=[];autosize=1;strokeColor=none;fillColor=none;fontFamily=NewsGotT;fontSize=12;fontColor=default;spacing=0;spacingLeft=3;spacingRight=-10;spacingBottom=-2;spacingTop=-2;" parent="1" vertex="1">
          <mxGeometry x="355" y="356" width="25" height="20" as="geometry" />
        </mxCell>
        <mxCell id="6dm7ZZ2Ce49l9A71G7zG-17" value="" style="triangle;whiteSpace=wrap;html=1;fontFamily=NewsGotT;movable=1;resizable=1;rotatable=1;deletable=1;editable=1;locked=0;connectable=1;container=0;points=[[0,0.5,0,0,0]];" parent="1" vertex="1">
          <mxGeometry x="355" y="246" width="7.5" height="10" as="geometry" />
        </mxCell>
        <mxCell id="6dm7ZZ2Ce49l9A71G7zG-18" value="doutb" style="text;html=1;align=right;verticalAlign=middle;resizable=0;points=[];autosize=1;strokeColor=none;fillColor=none;fontFamily=NewsGotT;fontSize=12;fontColor=default;spacing=0;spacingRight=3;spacingLeft=-9;spacingBottom=-2;spacingTop=-2;" parent="1" vertex="1">
          <mxGeometry x="435" y="300" width="30" height="20" as="geometry" />
        </mxCell>
        <mxCell id="6dm7ZZ2Ce49l9A71G7zG-19" value="clk" style="endArrow=none;html=1;rounded=0;align=right;fontFamily=NewsGotT;fontSize=12;" parent="1" edge="1">
          <mxGeometry x="-1" y="-10" width="50" height="50" relative="1" as="geometry">
            <mxPoint x="90" y="40" as="sourcePoint" />
            <mxPoint x="665" y="40" as="targetPoint" />
            <mxPoint x="-10" y="-10" as="offset" />
          </mxGeometry>
        </mxCell>
        <mxCell id="6dm7ZZ2Ce49l9A71G7zG-20" value="rstn" style="endArrow=none;html=1;rounded=0;align=right;labelBackgroundColor=none;fontFamily=NewsGotT;fontSize=12;" parent="1" edge="1">
          <mxGeometry x="-1" y="-10" width="50" height="50" relative="1" as="geometry">
            <mxPoint x="90" y="50" as="sourcePoint" />
            <mxPoint x="655" y="50" as="targetPoint" />
            <mxPoint x="-10" y="-10" as="offset" />
          </mxGeometry>
        </mxCell>
        <mxCell id="6dm7ZZ2Ce49l9A71G7zG-21" value="" style="endArrow=none;html=1;rounded=0;entryX=0;entryY=0.5;entryDx=0;entryDy=0;entryPerimeter=0;edgeStyle=orthogonalEdgeStyle;startArrow=oval;startFill=1;startSize=3;fontFamily=NewsGotT;" parent="1" target="6dm7ZZ2Ce49l9A71G7zG-9" edge="1">
          <mxGeometry width="50" height="50" relative="1" as="geometry">
            <mxPoint x="340" y="40" as="sourcePoint" />
            <mxPoint x="335" y="120" as="targetPoint" />
            <Array as="points">
              <mxPoint x="340" y="40" />
              <mxPoint x="340" y="115" />
            </Array>
          </mxGeometry>
        </mxCell>
        <mxCell id="6dm7ZZ2Ce49l9A71G7zG-22" value="" style="endArrow=none;html=1;rounded=0;entryX=0;entryY=0.5;entryDx=0;entryDy=0;entryPerimeter=0;edgeStyle=orthogonalEdgeStyle;startArrow=oval;startFill=1;startSize=3;fontFamily=NewsGotT;" parent="1" target="6dm7ZZ2Ce49l9A71G7zG-17" edge="1">
          <mxGeometry width="50" height="50" relative="1" as="geometry">
            <mxPoint x="340" y="115" as="sourcePoint" />
            <mxPoint x="355" y="190" as="targetPoint" />
            <Array as="points">
              <mxPoint x="340" y="115" />
              <mxPoint x="340" y="251" />
            </Array>
          </mxGeometry>
        </mxCell>
        <mxCell id="6dm7ZZ2Ce49l9A71G7zG-23" value="" style="endArrow=classic;html=1;rounded=0;edgeStyle=orthogonalEdgeStyle;startArrow=oval;startFill=1;startSize=3;entryX=0.002;entryY=0.612;entryDx=0;entryDy=0;entryPerimeter=0;endFill=1;fontFamily=NewsGotT;" parent="1" target="6dm7ZZ2Ce49l9A71G7zG-3" edge="1">
          <mxGeometry width="50" height="50" relative="1" as="geometry">
            <mxPoint x="330" y="50" as="sourcePoint" />
            <mxPoint x="355" y="134" as="targetPoint" />
            <Array as="points">
              <mxPoint x="330" y="50" />
              <mxPoint x="330" y="135" />
            </Array>
          </mxGeometry>
        </mxCell>
        <mxCell id="6dm7ZZ2Ce49l9A71G7zG-24" value="" style="endArrow=classic;html=1;rounded=0;edgeStyle=orthogonalEdgeStyle;startArrow=oval;startFill=1;startSize=3;entryX=0.001;entryY=0.51;entryDx=0;entryDy=0;entryPerimeter=0;endFill=1;fontFamily=NewsGotT;" parent="1" target="6dm7ZZ2Ce49l9A71G7zG-12" edge="1">
          <mxGeometry width="50" height="50" relative="1" as="geometry">
            <mxPoint x="330" y="134.99" as="sourcePoint" />
            <mxPoint x="355" y="219.99" as="targetPoint" />
            <Array as="points">
              <mxPoint x="330" y="269" />
            </Array>
          </mxGeometry>
        </mxCell>
        <mxCell id="6dm7ZZ2Ce49l9A71G7zG-42" style="edgeStyle=orthogonalEdgeStyle;rounded=0;orthogonalLoop=1;jettySize=auto;html=1;exitX=1;exitY=0.5;exitDx=0;exitDy=-5;exitPerimeter=0;entryX=-0.005;entryY=0.489;entryDx=0;entryDy=0;entryPerimeter=0;fontFamily=NewsGotT;" parent="1" source="6dm7ZZ2Ce49l9A71G7zG-1" target="6dm7ZZ2Ce49l9A71G7zG-8" edge="1">
          <mxGeometry relative="1" as="geometry" />
        </mxCell>
        <mxCell id="6dm7ZZ2Ce49l9A71G7zG-44" value="" style="shadow=0;dashed=0;align=center;html=1;strokeWidth=1;shape=mxgraph.electrical.abstract.mux2;operation=demux;whiteSpace=wrap;fontFamily=NewsGotT;fontSize=14;" parent="1" vertex="1">
          <mxGeometry x="508" y="130" width="60" height="100" as="geometry" />
        </mxCell>
        <mxCell id="6dm7ZZ2Ce49l9A71G7zG-45" style="edgeStyle=orthogonalEdgeStyle;rounded=0;orthogonalLoop=1;jettySize=auto;html=1;entryX=0;entryY=0.45;entryDx=0;entryDy=0;entryPerimeter=0;endArrow=none;endFill=0;fontFamily=NewsGotT;" parent="1" source="6dm7ZZ2Ce49l9A71G7zG-11" target="6dm7ZZ2Ce49l9A71G7zG-44" edge="1">
          <mxGeometry relative="1" as="geometry" />
        </mxCell>
        <mxCell id="6dm7ZZ2Ce49l9A71G7zG-47" value="rsta" style="text;html=1;align=left;verticalAlign=middle;resizable=0;points=[];autosize=1;strokeColor=none;fillColor=none;spacing=0;fontFamily=NewsGotT;spacingLeft=3;spacingRight=-10;spacingBottom=-2;spacingTop=-2;" parent="1" vertex="1">
          <mxGeometry x="360" y="478" width="25" height="20" as="geometry" />
        </mxCell>
        <mxCell id="6dm7ZZ2Ce49l9A71G7zG-48" value="" style="triangle;whiteSpace=wrap;html=1;fontFamily=NewsGotT;movable=1;resizable=1;rotatable=1;deletable=1;editable=1;locked=0;connectable=1;container=0;points=[];" parent="1" vertex="1">
          <mxGeometry x="360" y="465" width="7.5" height="10" as="geometry" />
        </mxCell>
        <mxCell id="6dm7ZZ2Ce49l9A71G7zG-49" value="ena" style="text;html=1;align=left;verticalAlign=middle;resizable=0;points=[];autosize=1;strokeColor=none;fillColor=none;spacing=0;fontFamily=NewsGotT;spacingLeft=3;spacingRight=-10;spacingBottom=-2;spacingTop=-2;" parent="1" vertex="1">
          <mxGeometry x="360" y="502" width="20" height="20" as="geometry" />
        </mxCell>
        <mxCell id="6dm7ZZ2Ce49l9A71G7zG-50" value="wea" style="text;html=1;align=left;verticalAlign=middle;resizable=0;points=[];autosize=1;strokeColor=none;fillColor=none;spacing=0;fontFamily=NewsGotT;spacingLeft=3;spacingRight=-10;spacingBottom=-2;spacingTop=-2;" parent="1" vertex="1">
          <mxGeometry x="360" y="527" width="25" height="20" as="geometry" />
        </mxCell>
        <mxCell id="6dm7ZZ2Ce49l9A71G7zG-51" value="addra" style="text;html=1;align=left;verticalAlign=middle;resizable=0;points=[];autosize=1;strokeColor=none;fillColor=none;fontFamily=NewsGotT;fontSize=12;fontColor=default;spacing=0;spacingLeft=3;spacingRight=-10;spacingBottom=-2;spacingTop=-2;" parent="1" vertex="1">
          <mxGeometry x="360" y="551" width="30" height="20" as="geometry" />
        </mxCell>
        <mxCell id="6dm7ZZ2Ce49l9A71G7zG-52" value="dina" style="text;html=1;align=left;verticalAlign=middle;resizable=0;points=[];autosize=1;strokeColor=none;fillColor=none;fontFamily=NewsGotT;fontSize=12;fontColor=default;spacing=0;spacingLeft=3;spacingRight=-10;spacingBottom=-2;spacingTop=-2;" parent="1" vertex="1">
          <mxGeometry x="360" y="575" width="25" height="20" as="geometry" />
        </mxCell>
        <mxCell id="6dm7ZZ2Ce49l9A71G7zG-53" value="" style="triangle;whiteSpace=wrap;html=1;fontFamily=NewsGotT;movable=1;resizable=1;rotatable=1;deletable=1;editable=1;locked=0;connectable=1;container=0;points=[[0,0.5,0,0,0]];" parent="1" vertex="1">
          <mxGeometry x="360" y="465" width="7.5" height="10" as="geometry" />
        </mxCell>
        <mxCell id="6dm7ZZ2Ce49l9A71G7zG-54" value="rstb" style="text;html=1;align=left;verticalAlign=middle;resizable=0;points=[];autosize=1;strokeColor=none;fillColor=none;spacing=0;fontFamily=NewsGotT;spacingLeft=3;spacingRight=-10;spacingBottom=-2;spacingTop=-2;" parent="1" vertex="1">
          <mxGeometry x="360" y="614" width="25" height="20" as="geometry" />
        </mxCell>
        <mxCell id="6dm7ZZ2Ce49l9A71G7zG-55" value="enb" style="text;html=1;align=left;verticalAlign=middle;resizable=0;points=[];autosize=1;strokeColor=none;fillColor=none;spacing=0;fontFamily=NewsGotT;spacingLeft=3;spacingRight=-10;spacingBottom=-2;spacingTop=-2;" parent="1" vertex="1">
          <mxGeometry x="360" y="638" width="20" height="20" as="geometry" />
        </mxCell>
        <mxCell id="6dm7ZZ2Ce49l9A71G7zG-56" value="web" style="text;html=1;align=left;verticalAlign=middle;resizable=0;points=[];autosize=1;strokeColor=none;fillColor=none;spacing=0;fontFamily=NewsGotT;spacingLeft=3;spacingRight=-10;spacingBottom=-2;spacingTop=-2;" parent="1" vertex="1">
          <mxGeometry x="360" y="663" width="25" height="20" as="geometry" />
        </mxCell>
        <mxCell id="6dm7ZZ2Ce49l9A71G7zG-57" value="addrb" style="text;html=1;align=left;verticalAlign=middle;resizable=0;points=[];autosize=1;strokeColor=none;fillColor=none;fontFamily=NewsGotT;fontSize=12;fontColor=default;spacing=0;spacingLeft=3;spacingRight=-10;spacingBottom=-2;spacingTop=-2;" parent="1" vertex="1">
          <mxGeometry x="360" y="687" width="30" height="20" as="geometry" />
        </mxCell>
        <mxCell id="6dm7ZZ2Ce49l9A71G7zG-58" value="dinb" style="text;html=1;align=left;verticalAlign=middle;resizable=0;points=[];autosize=1;strokeColor=none;fillColor=none;fontFamily=NewsGotT;fontSize=12;fontColor=default;spacing=0;spacingLeft=3;spacingRight=-10;spacingBottom=-2;spacingTop=-2;" parent="1" vertex="1">
          <mxGeometry x="360" y="711" width="25" height="20" as="geometry" />
        </mxCell>
        <mxCell id="6dm7ZZ2Ce49l9A71G7zG-59" value="" style="triangle;whiteSpace=wrap;html=1;fontFamily=NewsGotT;movable=1;resizable=1;rotatable=1;deletable=1;editable=1;locked=0;connectable=1;container=0;points=[[0,0.5,0,0,0]];" parent="1" vertex="1">
          <mxGeometry x="360" y="601" width="7.5" height="10" as="geometry" />
        </mxCell>
        <mxCell id="6dm7ZZ2Ce49l9A71G7zG-60" value="&lt;b&gt;N-point&lt;br&gt;BRAM&lt;/b&gt;" style="rounded=0;whiteSpace=wrap;html=1;fontFamily=NewsGotT;verticalAlign=middle;" parent="1" vertex="1">
          <mxGeometry x="355" y="440" width="110" height="300" as="geometry" />
        </mxCell>
        <mxCell id="6dm7ZZ2Ce49l9A71G7zG-61" value="rsta" style="text;html=1;align=left;verticalAlign=middle;resizable=0;points=[];autosize=1;strokeColor=none;fillColor=none;spacing=0;fontFamily=NewsGotT;spacingLeft=3;spacingRight=-10;spacingBottom=-2;spacingTop=-2;" parent="1" vertex="1">
          <mxGeometry x="355" y="473" width="25" height="20" as="geometry" />
        </mxCell>
        <mxCell id="6dm7ZZ2Ce49l9A71G7zG-62" value="" style="triangle;whiteSpace=wrap;html=1;fontFamily=NewsGotT;movable=1;resizable=1;rotatable=1;deletable=1;editable=1;locked=0;connectable=1;container=0;points=[];" parent="1" vertex="1">
          <mxGeometry x="355" y="460" width="7.5" height="10" as="geometry" />
        </mxCell>
        <mxCell id="6dm7ZZ2Ce49l9A71G7zG-63" value="ena" style="text;html=1;align=left;verticalAlign=middle;resizable=0;points=[];autosize=1;strokeColor=none;fillColor=none;spacing=0;fontFamily=NewsGotT;spacingLeft=3;spacingRight=-10;spacingBottom=-2;spacingTop=-2;" parent="1" vertex="1">
          <mxGeometry x="355" y="497" width="20" height="20" as="geometry" />
        </mxCell>
        <mxCell id="6dm7ZZ2Ce49l9A71G7zG-64" value="wea" style="text;html=1;align=left;verticalAlign=middle;resizable=0;points=[];autosize=1;strokeColor=none;fillColor=none;spacing=0;fontFamily=NewsGotT;spacingLeft=3;spacingRight=-10;spacingBottom=-2;spacingTop=-2;" parent="1" vertex="1">
          <mxGeometry x="355" y="522" width="25" height="20" as="geometry" />
        </mxCell>
        <mxCell id="6dm7ZZ2Ce49l9A71G7zG-65" value="addra" style="text;html=1;align=left;verticalAlign=middle;resizable=0;points=[];autosize=1;strokeColor=none;fillColor=none;fontFamily=NewsGotT;fontSize=12;fontColor=default;spacing=0;spacingLeft=3;spacingRight=-10;spacingBottom=-2;spacingTop=-2;" parent="1" vertex="1">
          <mxGeometry x="355" y="546" width="30" height="20" as="geometry" />
        </mxCell>
        <mxCell id="6dm7ZZ2Ce49l9A71G7zG-66" value="dina" style="text;html=1;align=left;verticalAlign=middle;resizable=0;points=[];autosize=1;strokeColor=none;fillColor=none;fontFamily=NewsGotT;fontSize=12;fontColor=default;spacing=0;spacingLeft=3;spacingRight=-10;spacingBottom=-2;spacingTop=-2;" parent="1" vertex="1">
          <mxGeometry x="355" y="570" width="25" height="20" as="geometry" />
        </mxCell>
        <mxCell id="6dm7ZZ2Ce49l9A71G7zG-67" value="" style="triangle;whiteSpace=wrap;html=1;fontFamily=NewsGotT;movable=1;resizable=1;rotatable=1;deletable=1;editable=1;locked=0;connectable=1;container=0;points=[[0,0.5,0,0,0]];" parent="1" vertex="1">
          <mxGeometry x="355" y="460" width="7.5" height="10" as="geometry" />
        </mxCell>
        <mxCell id="6dm7ZZ2Ce49l9A71G7zG-68" value="douta" style="text;html=1;align=right;verticalAlign=middle;resizable=0;points=[];autosize=1;strokeColor=none;fillColor=none;fontFamily=NewsGotT;fontSize=12;fontColor=default;spacing=0;spacingRight=3;spacingLeft=-9;spacingBottom=-2;spacingTop=-2;" parent="1" vertex="1">
          <mxGeometry x="435" y="515" width="30" height="20" as="geometry" />
        </mxCell>
        <mxCell id="6dm7ZZ2Ce49l9A71G7zG-69" value="rstb" style="text;html=1;align=left;verticalAlign=middle;resizable=0;points=[];autosize=1;strokeColor=none;fillColor=none;spacing=0;fontFamily=NewsGotT;spacingLeft=3;spacingRight=-10;spacingBottom=-2;spacingTop=-2;" parent="1" vertex="1">
          <mxGeometry x="355" y="609" width="25" height="20" as="geometry" />
        </mxCell>
        <mxCell id="6dm7ZZ2Ce49l9A71G7zG-70" value="enb" style="text;html=1;align=left;verticalAlign=middle;resizable=0;points=[];autosize=1;strokeColor=none;fillColor=none;spacing=0;fontFamily=NewsGotT;spacingLeft=3;spacingRight=-10;spacingBottom=-2;spacingTop=-2;" parent="1" vertex="1">
          <mxGeometry x="355" y="633" width="20" height="20" as="geometry" />
        </mxCell>
        <mxCell id="6dm7ZZ2Ce49l9A71G7zG-71" value="web" style="text;html=1;align=left;verticalAlign=middle;resizable=0;points=[];autosize=1;strokeColor=none;fillColor=none;spacing=0;fontFamily=NewsGotT;spacingLeft=3;spacingRight=-10;spacingBottom=-2;spacingTop=-2;" parent="1" vertex="1">
          <mxGeometry x="355" y="658" width="25" height="20" as="geometry" />
        </mxCell>
        <mxCell id="6dm7ZZ2Ce49l9A71G7zG-72" value="addrb" style="text;html=1;align=left;verticalAlign=middle;resizable=0;points=[];autosize=1;strokeColor=none;fillColor=none;fontFamily=NewsGotT;fontSize=12;fontColor=default;spacing=0;spacingLeft=3;spacingRight=-10;spacingBottom=-2;spacingTop=-2;" parent="1" vertex="1">
          <mxGeometry x="355" y="682" width="30" height="20" as="geometry" />
        </mxCell>
        <mxCell id="6dm7ZZ2Ce49l9A71G7zG-73" value="dinb" style="text;html=1;align=left;verticalAlign=middle;resizable=0;points=[];autosize=1;strokeColor=none;fillColor=none;fontFamily=NewsGotT;fontSize=12;fontColor=default;spacing=0;spacingLeft=3;spacingRight=-10;spacingBottom=-2;spacingTop=-2;" parent="1" vertex="1">
          <mxGeometry x="355" y="706" width="25" height="20" as="geometry" />
        </mxCell>
        <mxCell id="6dm7ZZ2Ce49l9A71G7zG-74" value="" style="triangle;whiteSpace=wrap;html=1;fontFamily=NewsGotT;movable=1;resizable=1;rotatable=1;deletable=1;editable=1;locked=0;connectable=1;container=0;points=[[0,0.5,0,0,0]];" parent="1" vertex="1">
          <mxGeometry x="355" y="596" width="7.5" height="10" as="geometry" />
        </mxCell>
        <mxCell id="6dm7ZZ2Ce49l9A71G7zG-75" value="doutb" style="text;html=1;align=right;verticalAlign=middle;resizable=0;points=[];autosize=1;strokeColor=none;fillColor=none;fontFamily=NewsGotT;fontSize=12;fontColor=default;spacing=0;spacingRight=3;spacingLeft=-9;spacingBottom=-2;spacingTop=-2;" parent="1" vertex="1">
          <mxGeometry x="435" y="650" width="30" height="20" as="geometry" />
        </mxCell>
        <mxCell id="6dm7ZZ2Ce49l9A71G7zG-76" value="" style="endArrow=classic;html=1;rounded=0;edgeStyle=orthogonalEdgeStyle;startArrow=oval;startFill=1;startSize=3;entryX=-0.004;entryY=0.617;entryDx=0;entryDy=0;entryPerimeter=0;endFill=1;fontFamily=NewsGotT;" parent="1" target="6dm7ZZ2Ce49l9A71G7zG-61" edge="1">
          <mxGeometry width="50" height="50" relative="1" as="geometry">
            <mxPoint x="330" y="269" as="sourcePoint" />
            <mxPoint x="355" y="403.01" as="targetPoint" />
            <Array as="points">
              <mxPoint x="330" y="485" />
            </Array>
          </mxGeometry>
        </mxCell>
        <mxCell id="6dm7ZZ2Ce49l9A71G7zG-77" value="" style="endArrow=classic;html=1;rounded=0;edgeStyle=orthogonalEdgeStyle;startArrow=oval;startFill=1;startSize=3;entryX=0.001;entryY=0.51;entryDx=0;entryDy=0;entryPerimeter=0;endFill=1;fontFamily=NewsGotT;" parent="1" edge="1">
          <mxGeometry width="50" height="50" relative="1" as="geometry">
            <mxPoint x="330" y="485" as="sourcePoint" />
            <mxPoint x="355" y="619.01" as="targetPoint" />
            <Array as="points">
              <mxPoint x="330" y="619.01" />
            </Array>
          </mxGeometry>
        </mxCell>
        <mxCell id="6dm7ZZ2Ce49l9A71G7zG-78" value="" style="endArrow=none;html=1;rounded=0;entryX=0;entryY=0.5;entryDx=0;entryDy=0;entryPerimeter=0;edgeStyle=orthogonalEdgeStyle;startArrow=oval;startFill=1;startSize=3;fontFamily=NewsGotT;" parent="1" target="6dm7ZZ2Ce49l9A71G7zG-67" edge="1">
          <mxGeometry width="50" height="50" relative="1" as="geometry">
            <mxPoint x="340" y="251" as="sourcePoint" />
            <mxPoint x="355" y="387" as="targetPoint" />
            <Array as="points">
              <mxPoint x="340" y="465" />
            </Array>
          </mxGeometry>
        </mxCell>
        <mxCell id="6dm7ZZ2Ce49l9A71G7zG-79" value="" style="endArrow=none;html=1;rounded=0;entryX=0;entryY=0.5;entryDx=0;entryDy=0;entryPerimeter=0;edgeStyle=orthogonalEdgeStyle;startArrow=oval;startFill=1;startSize=3;fontFamily=NewsGotT;" parent="1" edge="1">
          <mxGeometry width="50" height="50" relative="1" as="geometry">
            <mxPoint x="340" y="465" as="sourcePoint" />
            <mxPoint x="355" y="601" as="targetPoint" />
            <Array as="points">
              <mxPoint x="340" y="465" />
              <mxPoint x="340" y="601" />
            </Array>
          </mxGeometry>
        </mxCell>
        <mxCell id="6dm7ZZ2Ce49l9A71G7zG-81" value="x_im_i[31:0]" style="edgeStyle=orthogonalEdgeStyle;rounded=0;orthogonalLoop=1;jettySize=auto;html=1;entryX=0;entryY=0.21;entryDx=0;entryDy=3;entryPerimeter=0;endArrow=none;endFill=0;align=right;fontSize=12;fontFamily=NewsGotT;" parent="1" target="6dm7ZZ2Ce49l9A71G7zG-82" edge="1">
          <mxGeometry x="-1" y="5" relative="1" as="geometry">
            <mxPoint x="90" y="559" as="sourcePoint" />
            <Array as="points">
              <mxPoint x="128" y="559" />
            </Array>
            <mxPoint x="-5" y="5" as="offset" />
          </mxGeometry>
        </mxCell>
        <mxCell id="6dm7ZZ2Ce49l9A71G7zG-82" value="" style="shadow=0;dashed=0;align=center;html=1;strokeWidth=1;shape=mxgraph.electrical.abstract.mux2;whiteSpace=wrap;fontFamily=NewsGotT;fontSize=14;" parent="1" vertex="1">
          <mxGeometry x="165" y="535" width="60" height="100" as="geometry" />
        </mxCell>
        <mxCell id="6dm7ZZ2Ce49l9A71G7zG-83" style="edgeStyle=orthogonalEdgeStyle;rounded=0;orthogonalLoop=1;jettySize=auto;html=1;exitX=1;exitY=0.5;exitDx=0;exitDy=-5;exitPerimeter=0;entryX=-0.004;entryY=0.484;entryDx=0;entryDy=0;entryPerimeter=0;fontFamily=NewsGotT;" parent="1" source="6dm7ZZ2Ce49l9A71G7zG-82" target="6dm7ZZ2Ce49l9A71G7zG-66" edge="1">
          <mxGeometry relative="1" as="geometry" />
        </mxCell>
        <mxCell id="6dm7ZZ2Ce49l9A71G7zG-118" value="X_im_o[31:0]" style="edgeStyle=orthogonalEdgeStyle;rounded=0;orthogonalLoop=1;jettySize=auto;html=1;exitX=1;exitY=0.63;exitDx=0;exitDy=3;exitPerimeter=0;align=left;fontFamily=NewsGotT;fontSize=12;" parent="1" source="6dm7ZZ2Ce49l9A71G7zG-84" edge="1">
          <mxGeometry x="1" y="5" relative="1" as="geometry">
            <mxPoint x="980" y="548" as="targetPoint" />
            <Array as="points">
              <mxPoint x="970" y="548" />
              <mxPoint x="970" y="548" />
            </Array>
            <mxPoint x="5" y="5" as="offset" />
          </mxGeometry>
        </mxCell>
        <mxCell id="6dm7ZZ2Ce49l9A71G7zG-84" value="" style="shadow=0;dashed=0;align=center;html=1;strokeWidth=1;shape=mxgraph.electrical.abstract.mux2;operation=demux;whiteSpace=wrap;fontFamily=NewsGotT;fontSize=14;" parent="1" vertex="1">
          <mxGeometry x="508" y="482" width="60" height="100" as="geometry" />
        </mxCell>
        <mxCell id="6dm7ZZ2Ce49l9A71G7zG-85" style="edgeStyle=orthogonalEdgeStyle;rounded=0;orthogonalLoop=1;jettySize=auto;html=1;entryX=0;entryY=0.45;entryDx=0;entryDy=0;entryPerimeter=0;endArrow=none;endFill=0;fontFamily=NewsGotT;" parent="1" target="6dm7ZZ2Ce49l9A71G7zG-84" edge="1">
          <mxGeometry relative="1" as="geometry">
            <mxPoint x="465" y="527" as="sourcePoint" />
            <Array as="points">
              <mxPoint x="465" y="527" />
            </Array>
          </mxGeometry>
        </mxCell>
        <mxCell id="6dm7ZZ2Ce49l9A71G7zG-87" value="rsta" style="text;html=1;align=left;verticalAlign=middle;resizable=0;points=[];autosize=1;strokeColor=none;fillColor=none;spacing=0;fontFamily=NewsGotT;spacingLeft=3;spacingRight=-10;spacingBottom=-2;spacingTop=-2;" parent="1" vertex="1">
          <mxGeometry x="688" y="255" width="25" height="20" as="geometry" />
        </mxCell>
        <mxCell id="6dm7ZZ2Ce49l9A71G7zG-88" value="" style="triangle;whiteSpace=wrap;html=1;fontFamily=NewsGotT;movable=1;resizable=1;rotatable=1;deletable=1;editable=1;locked=0;connectable=1;container=0;points=[];" parent="1" vertex="1">
          <mxGeometry x="688" y="242" width="7.5" height="10" as="geometry" />
        </mxCell>
        <mxCell id="6dm7ZZ2Ce49l9A71G7zG-89" value="ena" style="text;html=1;align=left;verticalAlign=middle;resizable=0;points=[];autosize=1;strokeColor=none;fillColor=none;spacing=0;fontFamily=NewsGotT;spacingLeft=3;spacingRight=-10;spacingBottom=-2;spacingTop=-2;" parent="1" vertex="1">
          <mxGeometry x="688" y="279" width="20" height="20" as="geometry" />
        </mxCell>
        <mxCell id="6dm7ZZ2Ce49l9A71G7zG-90" value="wea" style="text;html=1;align=left;verticalAlign=middle;resizable=0;points=[];autosize=1;strokeColor=none;fillColor=none;spacing=0;fontFamily=NewsGotT;spacingLeft=3;spacingRight=-10;spacingBottom=-2;spacingTop=-2;" parent="1" vertex="1">
          <mxGeometry x="688" y="304" width="25" height="20" as="geometry" />
        </mxCell>
        <mxCell id="6dm7ZZ2Ce49l9A71G7zG-91" value="addra" style="text;html=1;align=left;verticalAlign=middle;resizable=0;points=[];autosize=1;strokeColor=none;fillColor=none;fontFamily=NewsGotT;fontSize=12;fontColor=default;spacing=0;spacingLeft=3;spacingRight=-10;spacingBottom=-2;spacingTop=-2;" parent="1" vertex="1">
          <mxGeometry x="688" y="328" width="30" height="20" as="geometry" />
        </mxCell>
        <mxCell id="6dm7ZZ2Ce49l9A71G7zG-92" value="dina" style="text;html=1;align=left;verticalAlign=middle;resizable=0;points=[];autosize=1;strokeColor=none;fillColor=none;fontFamily=NewsGotT;fontSize=12;fontColor=default;spacing=0;spacingLeft=3;spacingRight=-10;spacingBottom=-2;spacingTop=-2;" parent="1" vertex="1">
          <mxGeometry x="688" y="352" width="25" height="20" as="geometry" />
        </mxCell>
        <mxCell id="6dm7ZZ2Ce49l9A71G7zG-93" value="" style="triangle;whiteSpace=wrap;html=1;fontFamily=NewsGotT;movable=1;resizable=1;rotatable=1;deletable=1;editable=1;locked=0;connectable=1;container=0;points=[[0,0.5,0,0,0]];" parent="1" vertex="1">
          <mxGeometry x="688" y="242" width="7.5" height="10" as="geometry" />
        </mxCell>
        <mxCell id="6dm7ZZ2Ce49l9A71G7zG-94" value="rstb" style="text;html=1;align=left;verticalAlign=middle;resizable=0;points=[];autosize=1;strokeColor=none;fillColor=none;spacing=0;fontFamily=NewsGotT;spacingLeft=3;spacingRight=-10;spacingBottom=-2;spacingTop=-2;" parent="1" vertex="1">
          <mxGeometry x="688" y="391" width="25" height="20" as="geometry" />
        </mxCell>
        <mxCell id="6dm7ZZ2Ce49l9A71G7zG-99" value="" style="triangle;whiteSpace=wrap;html=1;fontFamily=NewsGotT;movable=1;resizable=1;rotatable=1;deletable=1;editable=1;locked=0;connectable=1;container=0;points=[[0,0.5,0,0,0]];" parent="1" vertex="1">
          <mxGeometry x="688" y="378" width="7.5" height="10" as="geometry" />
        </mxCell>
        <mxCell id="6dm7ZZ2Ce49l9A71G7zG-100" value="&lt;div&gt;&lt;span&gt;Butterfly&lt;/span&gt;&lt;/div&gt;&lt;div&gt;&lt;span&gt;Unit&lt;/span&gt;&lt;/div&gt;" style="rounded=0;whiteSpace=wrap;html=1;fontFamily=NewsGotT;verticalAlign=middle;fontStyle=1" parent="1" vertex="1">
          <mxGeometry x="683" y="217" width="190" height="213" as="geometry" />
        </mxCell>
        <mxCell id="6dm7ZZ2Ce49l9A71G7zG-101" value="rstn" style="text;html=1;align=left;verticalAlign=middle;resizable=0;points=[];autosize=1;strokeColor=none;fillColor=none;spacing=0;fontFamily=NewsGotT;spacingLeft=3;spacingRight=-10;spacingBottom=-2;spacingTop=-2;" parent="1" vertex="1">
          <mxGeometry x="683" y="250" width="25" height="20" as="geometry" />
        </mxCell>
        <mxCell id="6dm7ZZ2Ce49l9A71G7zG-102" value="" style="triangle;whiteSpace=wrap;html=1;fontFamily=NewsGotT;movable=1;resizable=1;rotatable=1;deletable=1;editable=1;locked=0;connectable=1;container=0;points=[];" parent="1" vertex="1">
          <mxGeometry x="683" y="237" width="7.5" height="10" as="geometry" />
        </mxCell>
        <mxCell id="6dm7ZZ2Ce49l9A71G7zG-103" value="x0_re_i[31:0]" style="text;html=1;align=left;verticalAlign=middle;resizable=0;points=[];autosize=1;strokeColor=none;fillColor=none;spacing=0;fontFamily=NewsGotT;spacingLeft=3;spacingRight=-10;spacingBottom=-2;spacingTop=-2;" parent="1" vertex="1">
          <mxGeometry x="683" y="274" width="65" height="20" as="geometry" />
        </mxCell>
        <mxCell id="6dm7ZZ2Ce49l9A71G7zG-104" value="x0_im_i[31:0]" style="text;html=1;align=left;verticalAlign=middle;resizable=0;points=[];autosize=1;strokeColor=none;fillColor=none;spacing=0;fontFamily=NewsGotT;spacingLeft=3;spacingRight=-10;spacingBottom=-2;spacingTop=-2;" parent="1" vertex="1">
          <mxGeometry x="683" y="299" width="70" height="20" as="geometry" />
        </mxCell>
        <mxCell id="6dm7ZZ2Ce49l9A71G7zG-105" value="x1_re_i[31:0]" style="text;html=1;align=left;verticalAlign=middle;resizable=0;points=[];autosize=1;strokeColor=none;fillColor=none;fontFamily=NewsGotT;fontSize=12;fontColor=default;spacing=0;spacingLeft=3;spacingRight=-10;spacingBottom=-2;spacingTop=-2;" parent="1" vertex="1">
          <mxGeometry x="683" y="323" width="65" height="20" as="geometry" />
        </mxCell>
        <mxCell id="6dm7ZZ2Ce49l9A71G7zG-106" value="x1_im_i[31:0]" style="text;html=1;align=left;verticalAlign=middle;resizable=0;points=[];autosize=1;strokeColor=none;fillColor=none;fontFamily=NewsGotT;fontSize=12;fontColor=default;spacing=0;spacingLeft=3;spacingRight=-10;spacingBottom=-2;spacingTop=-2;" parent="1" vertex="1">
          <mxGeometry x="683" y="347" width="70" height="20" as="geometry" />
        </mxCell>
        <mxCell id="6dm7ZZ2Ce49l9A71G7zG-107" value="" style="triangle;whiteSpace=wrap;html=1;fontFamily=NewsGotT;movable=1;resizable=1;rotatable=1;deletable=1;editable=1;locked=0;connectable=1;container=0;points=[[0,0.5,0,0,0]];" parent="1" vertex="1">
          <mxGeometry x="683" y="237" width="7.5" height="10" as="geometry" />
        </mxCell>
        <mxCell id="6dm7ZZ2Ce49l9A71G7zG-108" value="X0_re_o[31:0]" style="text;html=1;align=right;verticalAlign=middle;resizable=0;points=[];autosize=1;strokeColor=none;fillColor=none;fontFamily=NewsGotT;fontSize=12;fontColor=default;spacing=0;spacingRight=3;spacingLeft=-9;spacingBottom=-2;spacingTop=-2;" parent="1" vertex="1">
          <mxGeometry x="803" y="270" width="70" height="20" as="geometry" />
        </mxCell>
        <mxCell id="6dm7ZZ2Ce49l9A71G7zG-159" value="w_re_i[31:0]" style="edgeStyle=orthogonalEdgeStyle;rounded=0;orthogonalLoop=1;jettySize=auto;html=1;align=right;fontFamily=NewsGotT;fontSize=12;" parent="1" target="6dm7ZZ2Ce49l9A71G7zG-109" edge="1">
          <mxGeometry x="-1" y="-5" relative="1" as="geometry">
            <mxPoint x="90" y="795" as="sourcePoint" />
            <Array as="points">
              <mxPoint x="650" y="795" />
              <mxPoint x="650" y="382" />
            </Array>
            <mxPoint x="-5" y="-5" as="offset" />
          </mxGeometry>
        </mxCell>
        <mxCell id="6dm7ZZ2Ce49l9A71G7zG-109" value="w_re_i[31:0]" style="text;html=1;align=left;verticalAlign=middle;resizable=0;points=[];autosize=1;strokeColor=none;fillColor=none;spacing=0;fontFamily=NewsGotT;spacingLeft=3;spacingRight=-10;spacingBottom=-2;spacingTop=-2;" parent="1" vertex="1">
          <mxGeometry x="683" y="372" width="60" height="20" as="geometry" />
        </mxCell>
        <mxCell id="6dm7ZZ2Ce49l9A71G7zG-110" value="w_im_i[31:0]" style="text;html=1;align=left;verticalAlign=middle;resizable=0;points=[];autosize=1;strokeColor=none;fillColor=none;spacing=0;fontFamily=NewsGotT;spacingLeft=3;spacingRight=-10;spacingBottom=-2;spacingTop=-2;" parent="1" vertex="1">
          <mxGeometry x="683" y="396" width="65" height="20" as="geometry" />
        </mxCell>
        <mxCell id="6dm7ZZ2Ce49l9A71G7zG-115" value="X1_im_o[31:0]" style="text;html=1;align=right;verticalAlign=middle;resizable=0;points=[];autosize=1;strokeColor=none;fillColor=none;fontFamily=NewsGotT;fontSize=12;fontColor=default;spacing=0;spacingRight=3;spacingLeft=-9;spacingBottom=-2;spacingTop=-2;" parent="1" vertex="1">
          <mxGeometry x="798" y="370" width="75" height="20" as="geometry" />
        </mxCell>
        <mxCell id="6dm7ZZ2Ce49l9A71G7zG-122" value="X0_im_o[31:0]" style="text;html=1;align=right;verticalAlign=middle;resizable=0;points=[];autosize=1;strokeColor=none;fillColor=none;fontFamily=NewsGotT;fontSize=12;fontColor=default;spacing=0;spacingRight=3;spacingLeft=-9;spacingBottom=-2;spacingTop=-2;" parent="1" vertex="1">
          <mxGeometry x="798" y="303" width="75" height="20" as="geometry" />
        </mxCell>
        <mxCell id="6dm7ZZ2Ce49l9A71G7zG-123" value="X1_re_o[31:0]" style="text;html=1;align=right;verticalAlign=middle;resizable=0;points=[];autosize=1;strokeColor=none;fillColor=none;fontFamily=NewsGotT;fontSize=12;fontColor=default;spacing=0;spacingRight=3;spacingLeft=-9;spacingBottom=-2;spacingTop=-2;" parent="1" vertex="1">
          <mxGeometry x="803" y="337" width="70" height="20" as="geometry" />
        </mxCell>
        <mxCell id="6dm7ZZ2Ce49l9A71G7zG-124" style="edgeStyle=orthogonalEdgeStyle;rounded=0;orthogonalLoop=1;jettySize=auto;html=1;exitX=1;exitY=0.21;exitDx=0;exitDy=3;exitPerimeter=0;entryX=0.004;entryY=0.541;entryDx=0;entryDy=0;entryPerimeter=0;fontFamily=NewsGotT;" parent="1" source="6dm7ZZ2Ce49l9A71G7zG-44" target="6dm7ZZ2Ce49l9A71G7zG-103" edge="1">
          <mxGeometry relative="1" as="geometry">
            <Array as="points">
              <mxPoint x="598" y="154" />
              <mxPoint x="598" y="285" />
            </Array>
          </mxGeometry>
        </mxCell>
        <mxCell id="6dm7ZZ2Ce49l9A71G7zG-125" value="" style="endArrow=none;html=1;rounded=0;entryX=0;entryY=0.5;entryDx=0;entryDy=0;entryPerimeter=0;edgeStyle=orthogonalEdgeStyle;startArrow=none;startFill=0;startSize=3;fontFamily=NewsGotT;" parent="1" target="6dm7ZZ2Ce49l9A71G7zG-107" edge="1">
          <mxGeometry width="50" height="50" relative="1" as="geometry">
            <mxPoint x="665" y="40" as="sourcePoint" />
            <mxPoint x="658.03" y="115" as="targetPoint" />
            <Array as="points">
              <mxPoint x="665" y="242" />
            </Array>
          </mxGeometry>
        </mxCell>
        <mxCell id="6dm7ZZ2Ce49l9A71G7zG-126" value="" style="endArrow=classic;html=1;rounded=0;edgeStyle=orthogonalEdgeStyle;startArrow=oval;startFill=1;startSize=0;endFill=1;fontFamily=NewsGotT;" parent="1" edge="1">
          <mxGeometry width="50" height="50" relative="1" as="geometry">
            <mxPoint x="655" y="50" as="sourcePoint" />
            <mxPoint x="683" y="260" as="targetPoint" />
            <Array as="points">
              <mxPoint x="655" y="260" />
            </Array>
          </mxGeometry>
        </mxCell>
        <mxCell id="6dm7ZZ2Ce49l9A71G7zG-127" style="edgeStyle=orthogonalEdgeStyle;rounded=0;orthogonalLoop=1;jettySize=auto;html=1;entryX=-0.003;entryY=0.599;entryDx=0;entryDy=0;entryPerimeter=0;fontFamily=NewsGotT;" parent="1" source="6dm7ZZ2Ce49l9A71G7zG-18" target="6dm7ZZ2Ce49l9A71G7zG-105" edge="1">
          <mxGeometry relative="1" as="geometry">
            <mxPoint x="495" y="315" as="targetPoint" />
            <Array as="points">
              <mxPoint x="500" y="310" />
              <mxPoint x="500" y="335" />
            </Array>
          </mxGeometry>
        </mxCell>
        <mxCell id="6dm7ZZ2Ce49l9A71G7zG-128" style="edgeStyle=orthogonalEdgeStyle;rounded=0;orthogonalLoop=1;jettySize=auto;html=1;exitX=1;exitY=0.21;exitDx=0;exitDy=3;exitPerimeter=0;entryX=-0.001;entryY=0.56;entryDx=0;entryDy=0;entryPerimeter=0;fontFamily=NewsGotT;" parent="1" source="6dm7ZZ2Ce49l9A71G7zG-84" target="6dm7ZZ2Ce49l9A71G7zG-104" edge="1">
          <mxGeometry relative="1" as="geometry">
            <Array as="points">
              <mxPoint x="598" y="506" />
              <mxPoint x="598" y="310" />
            </Array>
          </mxGeometry>
        </mxCell>
        <mxCell id="6dm7ZZ2Ce49l9A71G7zG-129" style="edgeStyle=orthogonalEdgeStyle;rounded=0;orthogonalLoop=1;jettySize=auto;html=1;entryX=-0.004;entryY=0.653;entryDx=0;entryDy=0;entryPerimeter=0;fontFamily=NewsGotT;" parent="1" source="6dm7ZZ2Ce49l9A71G7zG-75" target="6dm7ZZ2Ce49l9A71G7zG-106" edge="1">
          <mxGeometry relative="1" as="geometry">
            <Array as="points">
              <mxPoint x="630" y="660" />
              <mxPoint x="630" y="360" />
            </Array>
          </mxGeometry>
        </mxCell>
        <mxCell id="6dm7ZZ2Ce49l9A71G7zG-130" style="edgeStyle=orthogonalEdgeStyle;rounded=0;orthogonalLoop=1;jettySize=auto;html=1;entryX=0;entryY=0.63;entryDx=0;entryDy=3;entryPerimeter=0;fontFamily=NewsGotT;" parent="1" source="6dm7ZZ2Ce49l9A71G7zG-108" target="6dm7ZZ2Ce49l9A71G7zG-1" edge="1">
          <mxGeometry relative="1" as="geometry">
            <mxPoint x="110" y="251" as="targetPoint" />
            <Array as="points">
              <mxPoint x="900" y="280" />
              <mxPoint x="900" y="70" />
              <mxPoint x="130" y="70" />
              <mxPoint x="130" y="251" />
            </Array>
          </mxGeometry>
        </mxCell>
        <mxCell id="6dm7ZZ2Ce49l9A71G7zG-131" style="edgeStyle=orthogonalEdgeStyle;rounded=0;orthogonalLoop=1;jettySize=auto;html=1;entryX=0.002;entryY=0.454;entryDx=0;entryDy=0;entryPerimeter=0;fontFamily=NewsGotT;" parent="1" source="6dm7ZZ2Ce49l9A71G7zG-122" target="6dm7ZZ2Ce49l9A71G7zG-16" edge="1">
          <mxGeometry relative="1" as="geometry">
            <Array as="points">
              <mxPoint x="925" y="313" />
              <mxPoint x="925" y="80" />
              <mxPoint x="320" y="80" />
              <mxPoint x="320" y="365" />
            </Array>
          </mxGeometry>
        </mxCell>
        <mxCell id="6dm7ZZ2Ce49l9A71G7zG-132" style="edgeStyle=orthogonalEdgeStyle;rounded=0;orthogonalLoop=1;jettySize=auto;html=1;entryX=0;entryY=0.63;entryDx=0;entryDy=3;entryPerimeter=0;fontFamily=NewsGotT;" parent="1" source="6dm7ZZ2Ce49l9A71G7zG-123" target="6dm7ZZ2Ce49l9A71G7zG-82" edge="1">
          <mxGeometry relative="1" as="geometry">
            <mxPoint x="110" y="601.0000000000002" as="targetPoint" />
            <Array as="points">
              <mxPoint x="925" y="347" />
              <mxPoint x="925" y="760" />
              <mxPoint x="130" y="760" />
              <mxPoint x="130" y="601" />
            </Array>
          </mxGeometry>
        </mxCell>
        <mxCell id="6dm7ZZ2Ce49l9A71G7zG-133" style="edgeStyle=orthogonalEdgeStyle;rounded=0;orthogonalLoop=1;jettySize=auto;html=1;entryX=0.002;entryY=0.451;entryDx=0;entryDy=0;entryPerimeter=0;fontFamily=NewsGotT;" parent="1" source="6dm7ZZ2Ce49l9A71G7zG-115" target="6dm7ZZ2Ce49l9A71G7zG-73" edge="1">
          <mxGeometry relative="1" as="geometry">
            <Array as="points">
              <mxPoint x="900" y="380" />
              <mxPoint x="900" y="750" />
              <mxPoint x="335" y="750" />
              <mxPoint x="335" y="715" />
            </Array>
          </mxGeometry>
        </mxCell>
        <mxCell id="6dm7ZZ2Ce49l9A71G7zG-135" value="bram_x0_en_i" style="endArrow=oval;html=1;rounded=0;align=right;endFill=1;startSize=6;endSize=3;fontFamily=NewsGotT;fontSize=12;" parent="1" edge="1">
          <mxGeometry x="-1" y="-5" width="50" height="50" relative="1" as="geometry">
            <mxPoint x="90" y="344" as="sourcePoint" />
            <mxPoint x="250" y="345" as="targetPoint" />
            <mxPoint x="-5" y="-5" as="offset" />
          </mxGeometry>
        </mxCell>
        <mxCell id="6dm7ZZ2Ce49l9A71G7zG-137" value="" style="endArrow=classic;html=1;rounded=0;edgeStyle=orthogonalEdgeStyle;startArrow=none;startFill=0;startSize=3;entryX=-0.004;entryY=0.602;entryDx=0;entryDy=0;entryPerimeter=0;endFill=1;fontFamily=NewsGotT;" parent="1" target="6dm7ZZ2Ce49l9A71G7zG-63" edge="1">
          <mxGeometry width="50" height="50" relative="1" as="geometry">
            <mxPoint x="250" y="345" as="sourcePoint" />
            <mxPoint x="295" y="636" as="targetPoint" />
            <Array as="points">
              <mxPoint x="250" y="510" />
              <mxPoint x="355" y="510" />
            </Array>
          </mxGeometry>
        </mxCell>
        <mxCell id="6dm7ZZ2Ce49l9A71G7zG-138" value="" style="endArrow=classic;html=1;rounded=0;edgeStyle=orthogonalEdgeStyle;startArrow=none;startFill=0;startSize=3;entryX=0;entryY=0.6;entryDx=0;entryDy=0;entryPerimeter=0;endFill=1;fontFamily=NewsGotT;" parent="1" target="6dm7ZZ2Ce49l9A71G7zG-5" edge="1">
          <mxGeometry width="50" height="50" relative="1" as="geometry">
            <mxPoint x="250" y="345" as="sourcePoint" />
            <mxPoint x="355" y="509" as="targetPoint" />
            <Array as="points">
              <mxPoint x="250" y="159" />
            </Array>
          </mxGeometry>
        </mxCell>
        <mxCell id="6dm7ZZ2Ce49l9A71G7zG-139" value="bram_x0_we_i" style="endArrow=oval;html=1;rounded=0;align=right;endFill=1;startSize=6;endSize=3;fontFamily=NewsGotT;fontSize=12;" parent="1" edge="1">
          <mxGeometry x="-1" y="-5" width="50" height="50" relative="1" as="geometry">
            <mxPoint x="90" y="360" as="sourcePoint" />
            <mxPoint x="260" y="360" as="targetPoint" />
            <mxPoint x="-5" y="-5" as="offset" />
          </mxGeometry>
        </mxCell>
        <mxCell id="6dm7ZZ2Ce49l9A71G7zG-140" value="" style="endArrow=classic;html=1;rounded=0;edgeStyle=orthogonalEdgeStyle;startArrow=none;startFill=0;startSize=3;entryX=-0.003;entryY=0.596;entryDx=0;entryDy=0;entryPerimeter=0;endFill=1;fontFamily=NewsGotT;" parent="1" target="6dm7ZZ2Ce49l9A71G7zG-64" edge="1">
          <mxGeometry width="50" height="50" relative="1" as="geometry">
            <mxPoint x="260" y="360" as="sourcePoint" />
            <mxPoint x="364.5" y="521.5" as="targetPoint" />
            <Array as="points">
              <mxPoint x="260" y="534" />
            </Array>
          </mxGeometry>
        </mxCell>
        <mxCell id="6dm7ZZ2Ce49l9A71G7zG-141" value="" style="endArrow=classic;html=1;rounded=0;edgeStyle=orthogonalEdgeStyle;startArrow=none;startFill=0;startSize=3;entryX=-0.003;entryY=0.617;entryDx=0;entryDy=0;entryPerimeter=0;endFill=1;fontFamily=NewsGotT;" parent="1" target="6dm7ZZ2Ce49l9A71G7zG-6" edge="1">
          <mxGeometry width="50" height="50" relative="1" as="geometry">
            <mxPoint x="260" y="360" as="sourcePoint" />
            <mxPoint x="364.5" y="171.5" as="targetPoint" />
            <Array as="points">
              <mxPoint x="260" y="184" />
            </Array>
          </mxGeometry>
        </mxCell>
        <mxCell id="6dm7ZZ2Ce49l9A71G7zG-142" value="bram_x0_addr_i" style="endArrow=oval;html=1;rounded=0;align=right;endFill=1;startSize=6;endSize=3;fontFamily=NewsGotT;fontSize=12;" parent="1" edge="1">
          <mxGeometry x="-1" y="-5" width="50" height="50" relative="1" as="geometry">
            <mxPoint x="90" y="375" as="sourcePoint" />
            <mxPoint x="270" y="375" as="targetPoint" />
            <mxPoint x="-5" y="-5" as="offset" />
          </mxGeometry>
        </mxCell>
        <mxCell id="6dm7ZZ2Ce49l9A71G7zG-143" value="" style="endArrow=classic;html=1;rounded=0;edgeStyle=orthogonalEdgeStyle;startArrow=none;startFill=0;startSize=3;entryX=0.008;entryY=0.697;entryDx=0;entryDy=0;entryPerimeter=0;endFill=1;fontFamily=NewsGotT;" parent="1" target="6dm7ZZ2Ce49l9A71G7zG-7" edge="1">
          <mxGeometry width="50" height="50" relative="1" as="geometry">
            <mxPoint x="270" y="375" as="sourcePoint" />
            <mxPoint x="365.5" y="196" as="targetPoint" />
            <Array as="points">
              <mxPoint x="270" y="210" />
            </Array>
          </mxGeometry>
        </mxCell>
        <mxCell id="6dm7ZZ2Ce49l9A71G7zG-144" value="" style="endArrow=classic;html=1;rounded=0;edgeStyle=orthogonalEdgeStyle;startArrow=none;startFill=0;startSize=3;entryX=0.002;entryY=0.682;entryDx=0;entryDy=0;entryPerimeter=0;endFill=1;fontFamily=NewsGotT;" parent="1" target="6dm7ZZ2Ce49l9A71G7zG-65" edge="1">
          <mxGeometry width="50" height="50" relative="1" as="geometry">
            <mxPoint x="270" y="375" as="sourcePoint" />
            <mxPoint x="365.5" y="546" as="targetPoint" />
            <Array as="points">
              <mxPoint x="290" y="560" />
              <mxPoint x="355" y="560" />
            </Array>
          </mxGeometry>
        </mxCell>
        <mxCell id="6dm7ZZ2Ce49l9A71G7zG-145" value="bram_x1_en_i" style="endArrow=oval;html=1;rounded=0;align=right;endFill=1;startSize=6;endSize=3;fontFamily=NewsGotT;fontSize=12;" parent="1" edge="1">
          <mxGeometry x="-1" y="-5" width="50" height="50" relative="1" as="geometry">
            <mxPoint x="90" y="431" as="sourcePoint" />
            <mxPoint x="285" y="431" as="targetPoint" />
            <mxPoint x="-5" y="-5" as="offset" />
          </mxGeometry>
        </mxCell>
        <mxCell id="6dm7ZZ2Ce49l9A71G7zG-146" value="bram_x1_we_i" style="endArrow=oval;html=1;rounded=0;align=right;endFill=1;startSize=6;endSize=3;fontFamily=NewsGotT;fontSize=12;" parent="1" edge="1">
          <mxGeometry x="-1" y="-5" width="50" height="50" relative="1" as="geometry">
            <mxPoint x="90" y="446" as="sourcePoint" />
            <mxPoint x="295" y="446" as="targetPoint" />
            <mxPoint x="-5" y="-5" as="offset" />
          </mxGeometry>
        </mxCell>
        <mxCell id="6dm7ZZ2Ce49l9A71G7zG-147" value="bram_x1_addr_i" style="endArrow=oval;html=1;rounded=0;align=right;endFill=1;startSize=6;endSize=3;fontFamily=NewsGotT;fontSize=12;" parent="1" edge="1">
          <mxGeometry x="-1" y="-5" width="50" height="50" relative="1" as="geometry">
            <mxPoint x="90" y="460.31" as="sourcePoint" />
            <mxPoint x="305" y="460" as="targetPoint" />
            <mxPoint x="-5" y="-5" as="offset" />
          </mxGeometry>
        </mxCell>
        <mxCell id="6dm7ZZ2Ce49l9A71G7zG-148" value="" style="endArrow=classic;html=1;rounded=0;edgeStyle=orthogonalEdgeStyle;startArrow=none;startFill=0;startSize=3;entryX=0;entryY=0.572;entryDx=0;entryDy=0;entryPerimeter=0;endFill=1;fontFamily=NewsGotT;" parent="1" target="6dm7ZZ2Ce49l9A71G7zG-13" edge="1">
          <mxGeometry width="50" height="50" relative="1" as="geometry">
            <mxPoint x="285" y="400" as="sourcePoint" />
            <mxPoint x="360" y="164" as="targetPoint" />
            <Array as="points">
              <mxPoint x="285" y="294" />
            </Array>
          </mxGeometry>
        </mxCell>
        <mxCell id="6dm7ZZ2Ce49l9A71G7zG-149" value="" style="endArrow=classic;html=1;rounded=0;edgeStyle=orthogonalEdgeStyle;startArrow=none;startFill=0;startSize=3;entryX=-0.003;entryY=0.617;entryDx=0;entryDy=0;entryPerimeter=0;endFill=1;fontFamily=NewsGotT;" parent="1" edge="1">
          <mxGeometry width="50" height="50" relative="1" as="geometry">
            <mxPoint x="295" y="415" as="sourcePoint" />
            <mxPoint x="355" y="319.03" as="targetPoint" />
            <Array as="points">
              <mxPoint x="295" y="319" />
            </Array>
          </mxGeometry>
        </mxCell>
        <mxCell id="6dm7ZZ2Ce49l9A71G7zG-150" value="" style="endArrow=classic;html=1;rounded=0;edgeStyle=orthogonalEdgeStyle;startArrow=none;startFill=0;startSize=3;entryX=0.008;entryY=0.697;entryDx=0;entryDy=0;entryPerimeter=0;endFill=1;fontFamily=NewsGotT;" parent="1" edge="1">
          <mxGeometry width="50" height="50" relative="1" as="geometry">
            <mxPoint x="305" y="430" as="sourcePoint" />
            <mxPoint x="355" y="343" as="targetPoint" />
            <Array as="points">
              <mxPoint x="305" y="343" />
            </Array>
          </mxGeometry>
        </mxCell>
        <mxCell id="6dm7ZZ2Ce49l9A71G7zG-151" value="" style="endArrow=classic;html=1;rounded=0;edgeStyle=orthogonalEdgeStyle;startArrow=none;startFill=0;startSize=3;entryX=0;entryY=0.6;entryDx=0;entryDy=0;entryPerimeter=0;endFill=1;fontFamily=NewsGotT;" parent="1" target="6dm7ZZ2Ce49l9A71G7zG-70" edge="1">
          <mxGeometry width="50" height="50" relative="1" as="geometry">
            <mxPoint x="285" y="400" as="sourcePoint" />
            <mxPoint x="354.97" y="642.49" as="targetPoint" />
            <Array as="points">
              <mxPoint x="285" y="645" />
            </Array>
          </mxGeometry>
        </mxCell>
        <mxCell id="6dm7ZZ2Ce49l9A71G7zG-152" value="" style="endArrow=classic;html=1;rounded=0;edgeStyle=orthogonalEdgeStyle;startArrow=none;startFill=0;startSize=3;entryX=0;entryY=0.601;entryDx=0;entryDy=0;entryPerimeter=0;endFill=1;fontFamily=NewsGotT;" parent="1" target="6dm7ZZ2Ce49l9A71G7zG-71" edge="1">
          <mxGeometry width="50" height="50" relative="1" as="geometry">
            <mxPoint x="295" y="414.5" as="sourcePoint" />
            <mxPoint x="365" y="659.5" as="targetPoint" />
            <Array as="points">
              <mxPoint x="295" y="670" />
            </Array>
          </mxGeometry>
        </mxCell>
        <mxCell id="6dm7ZZ2Ce49l9A71G7zG-154" value="" style="endArrow=classic;html=1;rounded=0;edgeStyle=orthogonalEdgeStyle;startArrow=none;startFill=0;startSize=3;entryX=0.004;entryY=0.644;entryDx=0;entryDy=0;entryPerimeter=0;endFill=1;fontFamily=NewsGotT;" parent="1" target="6dm7ZZ2Ce49l9A71G7zG-72" edge="1">
          <mxGeometry width="50" height="50" relative="1" as="geometry">
            <mxPoint x="305" y="430" as="sourcePoint" />
            <mxPoint x="375" y="675" as="targetPoint" />
            <Array as="points">
              <mxPoint x="305" y="695" />
              <mxPoint x="355" y="695" />
            </Array>
          </mxGeometry>
        </mxCell>
        <mxCell id="6dm7ZZ2Ce49l9A71G7zG-156" value="" style="endArrow=none;html=1;rounded=0;entryX=0.3333333333333333;entryY=1;entryDx=10;entryDy=0;entryPerimeter=0;edgeStyle=orthogonalEdgeStyle;startArrow=oval;startFill=1;startSize=3;fontFamily=NewsGotT;" parent="1" target="6dm7ZZ2Ce49l9A71G7zG-82" edge="1">
          <mxGeometry width="50" height="50" relative="1" as="geometry">
            <mxPoint x="110" y="300" as="sourcePoint" />
            <mxPoint x="415" y="410" as="targetPoint" />
            <Array as="points">
              <mxPoint x="110" y="660" />
              <mxPoint x="195" y="660" />
            </Array>
          </mxGeometry>
        </mxCell>
        <mxCell id="6dm7ZZ2Ce49l9A71G7zG-157" value="fft_ready_i" style="edgeStyle=orthogonalEdgeStyle;rounded=0;orthogonalLoop=1;jettySize=auto;html=1;entryX=0.3333333333333333;entryY=1;entryDx=10;entryDy=0;entryPerimeter=0;endArrow=none;endFill=0;align=right;startSize=6;endSize=4;fontFamily=NewsGotT;fontSize=12;" parent="1" target="6dm7ZZ2Ce49l9A71G7zG-44" edge="1">
          <mxGeometry x="-1" y="-5" relative="1" as="geometry">
            <mxPoint x="195" y="303.97" as="targetPoint" />
            <mxPoint x="90" y="410" as="sourcePoint" />
            <Array as="points">
              <mxPoint x="538" y="410" />
            </Array>
            <mxPoint x="-5" y="-5" as="offset" />
          </mxGeometry>
        </mxCell>
        <mxCell id="6dm7ZZ2Ce49l9A71G7zG-158" value="" style="endArrow=none;html=1;rounded=0;entryX=0.3333333333333333;entryY=1;entryDx=10;entryDy=0;entryPerimeter=0;edgeStyle=orthogonalEdgeStyle;startArrow=oval;startFill=1;startSize=3;fontFamily=NewsGotT;" parent="1" target="6dm7ZZ2Ce49l9A71G7zG-84" edge="1">
          <mxGeometry width="50" height="50" relative="1" as="geometry">
            <mxPoint x="498" y="410" as="sourcePoint" />
            <mxPoint x="583" y="745" as="targetPoint" />
            <Array as="points">
              <mxPoint x="498" y="600" />
              <mxPoint x="538" y="600" />
            </Array>
          </mxGeometry>
        </mxCell>
        <mxCell id="6dm7ZZ2Ce49l9A71G7zG-160" value="w_im_i[31:0]" style="edgeStyle=orthogonalEdgeStyle;rounded=0;orthogonalLoop=1;jettySize=auto;html=1;align=right;entryX=0;entryY=0.697;entryDx=0;entryDy=0;entryPerimeter=0;fontFamily=NewsGotT;fontSize=12;" parent="1" target="6dm7ZZ2Ce49l9A71G7zG-110" edge="1">
          <mxGeometry x="-1" y="-5" relative="1" as="geometry">
            <mxPoint x="735" y="405" as="targetPoint" />
            <mxPoint x="90" y="820" as="sourcePoint" />
            <Array as="points">
              <mxPoint x="670" y="820" />
              <mxPoint x="670" y="410" />
            </Array>
            <mxPoint x="-5" y="-5" as="offset" />
          </mxGeometry>
        </mxCell>
        <mxCell id="SpzvFuYvfNZIos579TfY-1" value="X_re_o[31:0]" style="edgeStyle=orthogonalEdgeStyle;rounded=0;orthogonalLoop=1;jettySize=auto;html=1;exitX=1;exitY=0.21;exitDx=0;exitDy=3;exitPerimeter=0;fontFamily=NewsGotT;align=left;fontSize=12;" parent="1" edge="1">
          <mxGeometry x="0.9952" y="-10" relative="1" as="geometry">
            <mxPoint x="980" y="195" as="targetPoint" />
            <mxPoint x="568" y="196" as="sourcePoint" />
            <mxPoint as="offset" />
            <Array as="points">
              <mxPoint x="980" y="196" />
            </Array>
          </mxGeometry>
        </mxCell>
      </root>
    </mxGraphModel>
  </diagram>
</mxfile>
